# xmcd
#
# Track frame offsets:
#	150
#	12165
#	25840
#	37830
#	54625
#	68178
#	78700
#	90698
#	99645
#	110440
#	120245
#	133010
#
# Disc length: 1944 seconds
#
# Revision: 0
# Processed by: cddbd v1.4PL0 Copyright (c) Steve Scherf et al.
# Submitted via: EasyCDDAExtractor 4.6.0.1
#
DISCID=9407960c
DTITLE=Jodle Birge - Danmark Er Mit Land
DYEAR=1900
DGENRE=country
TTITLE0=Danmark er mit land
TTITLE1=Min kære pige
TTITLE2=Min barndomsbrud
TTITLE3=En lille vild buket
TTITLE4=Jeg bryder sammen
TTITLE5=Charlie's sang
TTITLE6=En dag med dig i drømmeland
TTITLE7=Vores sted
TTITLE8=Prøv at glemme
TTITLE9=Mari'
TTITLE10=Jeg er fanget
TTITLE11=Jeg elsker dig mer' end du tror
EXTD=
EXTT0=
EXTT1=
EXTT2=
EXTT3=
EXTT4=
EXTT5=
EXTT6=
EXTT7=
EXTT8=
EXTT9=
EXTT10=
EXTT11=
PLAYORDER=
